<?xml version="1.0" encoding="UTF-8" standalone="no"?>
<!DOCTYPE svg PUBLIC "-//W3C//DTD SVG 1.1//EN" "http://www.w3.org/Graphics/SVG/1.1/DTD/svg11.dtd">
<svg version="1.1" xmlns="http://www.w3.org/2000/svg" xmlns:xlink="http://www.w3.org/1999/xlink" preserveAspectRatio="xMidYMid meet" viewBox="0 0 26 17" width="26" height="17"><defs><path d="M26 0C26 0 26 0 26 0C26 10.2 26 15.87 26 17C26 17 26 17 26 17C10.4 17 1.73 17 0 17C0 17 0 17 0 17C0 6.8 0 1.14 0 0C0 0 0 0 0 0C15.6 0 24.27 0 26 0Z" id="d1YrGayoR4"></path><path d="M26 1.57L26 0L26 0L15.83 5.55L18.7 5.55L26 1.57Z" id="b1pCOW5tsV"></path><path d="M11.38 0L11.38 6.91L0 6.91L0 10.1L11.38 10.1L11.38 17L14.63 17L14.63 10.1L26 10.1L26 6.91L14.63 6.91L14.63 0L11.38 0Z" id="bvGQegLg4"></path><path d="M15.83 0L24.71 0L15.83 4.84L15.83 0Z" id="e4knZhgYl"></path><path d="M26 14.73L26 11.46L20 11.46L26 14.73Z" id="gTnRvIOsu"></path><path d="M26 3.05L26 5.55L21.41 5.55L26 3.05Z" id="cSRliWWv"></path><path d="M26 17L26 15.43L18.7 11.46L15.83 11.46L26 17Z" id="e7bRZXv4Q"></path><path d="M0 0L0 1.57L7.3 5.55L10.17 5.55L0 0Z" id="ccsyeSFJj"></path><path d="M15.83 12.93L15.83 17L23.29 17L15.83 12.93Z" id="aGg0h7TYR"></path><path d="M0 0L0 1.57L7.3 5.55L10.17 5.55L0 0Z" id="g1rg4D1XAK"></path><path d="M26 17L26 15.43L18.7 11.46L15.83 11.46L26 17Z" id="aoWE0tDPv"></path><path d="M10.17 4.07L10.17 0L2.71 0L10.17 4.07Z" id="a4hSjWTTTJ"></path><path d="M26 17L26 15.43L18.7 11.46L15.83 11.46L26 17Z" id="a14d8dYHPT"></path><path d="M0 0L0 1.57L7.3 5.55L10.17 5.55L0 0Z" id="b13c27lHhe"></path><path d="M0 13.96L0 11.46L4.59 11.46L0 13.96Z" id="acKt4EwB8"></path><path d="M0 2.27L0 5.55L6 5.55L0 2.27Z" id="d1cNneyOlF"></path><path d="M10.17 17L1.29 17L10.17 12.16L10.17 17Z" id="b1xrZguJfj"></path><path d="M0 15.43L0 17L0 17L10.17 11.46L7.3 11.46L0 15.43Z" id="aBaXtBuNW"></path></defs><g><g><g><use xlink:href="#d1YrGayoR4" opacity="1" fill="#f0f0f0" fill-opacity="1"></use><g><use xlink:href="#d1YrGayoR4" opacity="1" fill-opacity="0" stroke="#000000" stroke-width="1" stroke-opacity="0"></use></g></g><g><use xlink:href="#b1pCOW5tsV" opacity="1" fill="#d80027" fill-opacity="1"></use><g><use xlink:href="#b1pCOW5tsV" opacity="1" fill-opacity="0" stroke="#000000" stroke-width="1" stroke-opacity="0"></use></g></g><g><use xlink:href="#bvGQegLg4" opacity="1" fill="#d80027" fill-opacity="1"></use><g><use xlink:href="#bvGQegLg4" opacity="1" fill-opacity="0" stroke="#000000" stroke-width="1" stroke-opacity="0"></use></g></g><g><use xlink:href="#e4knZhgYl" opacity="1" fill="#0052b4" fill-opacity="1"></use><g><use xlink:href="#e4knZhgYl" opacity="1" fill-opacity="0" stroke="#000000" stroke-width="1" stroke-opacity="0"></use></g></g><g><use xlink:href="#gTnRvIOsu" opacity="1" fill="#0052b4" fill-opacity="1"></use><g><use xlink:href="#gTnRvIOsu" opacity="1" fill-opacity="0" stroke="#000000" stroke-width="1" stroke-opacity="0"></use></g></g><g><use xlink:href="#cSRliWWv" opacity="1" fill="#0052b4" fill-opacity="1"></use><g><use xlink:href="#cSRliWWv" opacity="1" fill-opacity="0" stroke="#000000" stroke-width="1" stroke-opacity="0"></use></g></g><g><use xlink:href="#e7bRZXv4Q" opacity="1" fill="#0052b4" fill-opacity="1"></use><g><use xlink:href="#e7bRZXv4Q" opacity="1" fill-opacity="0" stroke="#000000" stroke-width="1" stroke-opacity="0"></use></g></g><g><use xlink:href="#ccsyeSFJj" opacity="1" fill="#d80027" fill-opacity="1"></use><g><use xlink:href="#ccsyeSFJj" opacity="1" fill-opacity="0" stroke="#000000" stroke-width="1" stroke-opacity="0"></use></g></g><g><use xlink:href="#aGg0h7TYR" opacity="1" fill="#0052b4" fill-opacity="1"></use><g><use xlink:href="#aGg0h7TYR" opacity="1" fill-opacity="0" stroke="#000000" stroke-width="1" stroke-opacity="0"></use></g></g><g><use xlink:href="#g1rg4D1XAK" opacity="1" fill="#f0f0f0" fill-opacity="1"></use><g><use xlink:href="#g1rg4D1XAK" opacity="1" fill-opacity="0" stroke="#000000" stroke-width="1" stroke-opacity="0"></use></g></g><g><use xlink:href="#aoWE0tDPv" opacity="1" fill="#f0f0f0" fill-opacity="1"></use><g><use xlink:href="#aoWE0tDPv" opacity="1" fill-opacity="0" stroke="#000000" stroke-width="1" stroke-opacity="0"></use></g></g><g><use xlink:href="#a4hSjWTTTJ" opacity="1" fill="#0052b4" fill-opacity="1"></use><g><use xlink:href="#a4hSjWTTTJ" opacity="1" fill-opacity="0" stroke="#000000" stroke-width="1" stroke-opacity="0"></use></g></g><g><use xlink:href="#a14d8dYHPT" opacity="1" fill="#d80027" fill-opacity="1"></use><g><use xlink:href="#a14d8dYHPT" opacity="1" fill-opacity="0" stroke="#000000" stroke-width="1" stroke-opacity="0"></use></g></g><g><use xlink:href="#b13c27lHhe" opacity="1" fill="#0052b4" fill-opacity="1"></use><g><use xlink:href="#b13c27lHhe" opacity="1" fill-opacity="0" stroke="#000000" stroke-width="1" stroke-opacity="0"></use></g></g><g><use xlink:href="#acKt4EwB8" opacity="1" fill="#0052b4" fill-opacity="1"></use><g><use xlink:href="#acKt4EwB8" opacity="1" fill-opacity="0" stroke="#000000" stroke-width="1" stroke-opacity="0"></use></g></g><g><use xlink:href="#d1cNneyOlF" opacity="1" fill="#0052b4" fill-opacity="1"></use><g><use xlink:href="#d1cNneyOlF" opacity="1" fill-opacity="0" stroke="#000000" stroke-width="1" stroke-opacity="0"></use></g></g><g><use xlink:href="#b1xrZguJfj" opacity="1" fill="#0052b4" fill-opacity="1"></use><g><use xlink:href="#b1xrZguJfj" opacity="1" fill-opacity="0" stroke="#000000" stroke-width="1" stroke-opacity="0"></use></g></g><g><use xlink:href="#aBaXtBuNW" opacity="1" fill="#d80027" fill-opacity="1"></use><g><use xlink:href="#aBaXtBuNW" opacity="1" fill-opacity="0" stroke="#000000" stroke-width="1" stroke-opacity="0"></use></g></g></g></g></svg>